<svg xmlns="http://www.w3.org/2000/svg" width="30" height="30" viewBox="0 0 30 30">
  <defs>
    <style>
      .cls-1 {
        fill: #fd7532;
        fill-rule: evenodd;
      }
    </style>
  </defs>
  <path id="Forma_1_copy" data-name="Forma 1 copy" class="cls-1" d="M1372.99,61a7.432,7.432,0,0,0-3.67-6.029l-3.45-3.837a1.88,1.88,0,0,0-1.87-.574V44a2,2,0,1,0-4,0v9.463a4.528,4.528,0,0,0,.57,2.187l4.43,7.98V65.5a0.5,0.5,0,0,0,.5.5h7a0.5,0.5,0,0,0,.5-0.5V61h-0.01ZM1372,65h-6V63.5a0.511,0.511,0,0,0-.06-0.244l-4.5-8.094a3.493,3.493,0,0,1-.44-1.7V44a1,1,0,1,1,2,0v7.176a1.9,1.9,0,0,0,.03,2.516l4.1,4.506,0.74-.672-4.1-4.506a0.911,0.911,0,0,1,1.32-1.255l0.03,0.035,3.51,3.9a0.523,0.523,0,0,0,.15.115,6.4,6.4,0,0,1,3.22,5.55V65Zm16-23a2,2,0,0,0-2,2v6.558a1.964,1.964,0,0,0-.5-0.058,1.861,1.861,0,0,0-1.36.631l-3.46,3.836A7.431,7.431,0,0,0,1377.01,61H1377v4.5a0.5,0.5,0,0,0,.5.5h7a0.5,0.5,0,0,0,.5-0.5v-1.87l4.38-7.937a4.465,4.465,0,0,0,.62-2.281V44A2,2,0,0,0,1388,42Zm1,11.412a3.5,3.5,0,0,1-.49,1.785l-4.45,8.062a0.507,0.507,0,0,0-.06.242V65h-6V61.362a6.433,6.433,0,0,1,3.25-5.562,0.515,0.515,0,0,0,.12-0.1l3.51-3.9a0.91,0.91,0,0,1,1.35,1.219l-4.1,4.506,0.74,0.673,4.1-4.505a1.9,1.9,0,0,0,.03-2.517V44a1,1,0,1,1,2,0v9.412h0Zm-8-4.912h-1a5.506,5.506,0,0,0-4.5,2.35V47.5h0.5a5.5,5.5,0,0,0,5.5-5.5,0.5,0.5,0,0,0-.5-0.5h-1a5.5,5.5,0,0,0-4.5,2.35V40.5h0.5a4,4,0,0,0,4-4,0.5,0.5,0,0,0-.5-0.5h-1a4,4,0,0,1-7,0h-1a0.5,0.5,0,0,0-.5.5,4,4,0,0,0,4,4h0.5v3.35a5.5,5.5,0,0,0-4.5-2.35h-1a0.5,0.5,0,0,0-.5.5,5.5,5.5,0,0,0,5.5,5.5h0.5v3.349a5.506,5.506,0,0,0-4.5-2.35h-1a0.5,0.5,0,0,0-.5.5,5.5,5.5,0,0,0,5.5,5.5h0.5v4h1v-4h0.5a5.5,5.5,0,0,0,5.5-5.5A0.5,0.5,0,0,0,1381,48.5Zm-1-6h0.47a4.506,4.506,0,0,1-4.47,4h-0.47A4.507,4.507,0,0,1,1380,42.5Zm-1.5-5.5h0.46a3.01,3.01,0,0,1-2.96,2.5h-0.46A3.013,3.013,0,0,1,1378.5,37Zm-4.5,2.5a3.01,3.01,0,0,1-2.96-2.5h0.46a3.013,3.013,0,0,1,2.96,2.5H1374Zm0,7a4.506,4.506,0,0,1-4.47-4H1370a4.5,4.5,0,0,1,4.47,4H1374Zm0,7a4.508,4.508,0,0,1-4.47-4H1370a4.5,4.5,0,0,1,4.47,4H1374Zm2,0h-0.47a4.506,4.506,0,0,1,4.47-4h0.47A4.508,4.508,0,0,1,1376,53.5Z" transform="translate(-1360 -36)"/>
</svg>
