<svg xmlns="http://www.w3.org/2000/svg" width="27" height="30" viewBox="0 0 27.44 30">
  <defs>
    <style>
      .cls-1 {
        fill: #fd7532;
        fill-rule: evenodd;
      }
    </style>
  </defs>
  <path id="Forma_1" data-name="Forma 1" class="cls-1" d="M1637.38,50.563a12.255,12.255,0,0,0,2.85-7.306,7.235,7.235,0,1,0-14.47,0,12.319,12.319,0,0,0,2.85,7.306c-10.61,3.578-9.5,13.429-9.03,15.436h26.84A13.072,13.072,0,0,0,1637.38,50.563Zm-4.38-13.6a6.258,6.258,0,0,1,5.7,3.7,4.32,4.32,0,0,1-4.85-.213,5.063,5.063,0,0,0-5.46.23l-1.46,1.029A6.278,6.278,0,0,1,1633,36.968Zm-6.27,6.29a1.761,1.761,0,0,1,.01-0.229l2.2-1.554a4.107,4.107,0,0,1,4.42-.189,5.286,5.286,0,0,0,5.68.314,6.408,6.408,0,0,1,.23,1.653c0,3.437-2.81,8.709-6.27,8.709S1626.73,46.7,1626.73,43.258Zm18.89,21.773h-25.24a12.1,12.1,0,0,1,4.54-11.533,14.058,14.058,0,0,0,1.2,3.9,3.871,3.871,0,0,0-1.58,4.553l0.8,2.281,1.82-.644-0.32-.916-0.91.32-0.48-1.371a2.895,2.895,0,1,1,5.46-1.925l0.47,1.37-0.91.317,0.32,0.917,1.82-.643-0.8-2.286a3.853,3.853,0,0,0-4.82-2.4,12.594,12.594,0,0,1-1.19-4.116,12.32,12.32,0,0,1,3.58-1.525,4.931,4.931,0,0,0,7.23,0,12,12,0,0,1,4.1,1.884,12.8,12.8,0,0,1-1.42,3.644,1.8,1.8,0,0,0-.51-0.082,1.945,1.945,0,1,0,1.35.559,13.627,13.627,0,0,0,1.41-3.472A12.179,12.179,0,0,1,1645.62,65.031Zm-5.87-6.289a0.975,0.975,0,0,1-.97.969A0.969,0.969,0,1,1,1639.75,58.742Z" transform="translate(-1619.31 -36)"/>
</svg>
