<svg xmlns="http://www.w3.org/2000/svg" width="22" height="19" viewBox="0 0 22 19">
  <defs>
    <style>
      .cls-1 {
        fill: #f5a918;
        fill-rule: evenodd;
      }
    </style>
  </defs>
  <path id="Forma_1" data-name="Forma 1" class="cls-1" d="M1646,646.333c-0.04-.6-0.79-1.073-2.28-1.432a0.762,0.762,0,0,0,.08-0.328v-2.462h-0.01c-0.13-2.051-8.88-2.112-9.89-2.112s-9.76.061-9.89,2.112H1624v0.045h0v2.418c0,0.667.9,1.19,2.24,1.579a0.562,0.562,0,0,0-.03.18h-0.01v0.045h0v2.414c-1.44.355-2.16,0.818-2.2,1.411h0v0.045h0v2.418a1.582,1.582,0,0,0,1.15,1.19,0.814,0.814,0,0,0-.04.219h-0.01v0.044h0v2.418c0,1.169,2.75,1.895,5.8,2.235a0.25,0.25,0,0,0,.07.013l0.02,0c0.58,0.064,1.18.114,1.77,0.149,0.02,0,.03.007,0.04,0.007s0.01,0,.02,0c0.75,0.043,1.49.065,2.18,0.065s1.43-.022,2.18-0.066a0.142,0.142,0,0,0,.02,0c0.01,0,.02-0.006.04-0.007,0.59-.035,1.19-0.085,1.77-0.149a0.062,0.062,0,0,1,.02,0,0.292,0.292,0,0,0,.07-0.013c3.05-.34,5.8-1.067,5.8-2.237v-2.461h-0.01a1.465,1.465,0,0,0-1.16-1.093,0.873,0.873,0,0,0,.07-0.316v-2.3c1.32-.389,2.2-0.908,2.2-1.57v-2.462h0Zm-2.97,6.446-0.13.106a3.289,3.289,0,0,1-.93.485v-1.678a5.821,5.821,0,0,0,1.1-.484v1.456A0.288,0.288,0,0,1,1643.03,652.779Zm-8.2,1.635-0.17,0c-0.13,0-.26,0-0.39,0v-1.758l0.3,0,0.06,0c0.37,0,.74-0.017,1.1-0.032v1.755l-0.23.011C1635.28,654.4,1635.05,654.409,1634.83,654.414Zm-1.61,0c-0.16,0-.33-0.006-0.5-0.012h-0.06c-0.2-.008-0.4-0.014-0.59-0.025v-1.755c0.36,0.016.73,0.028,1.1,0.033h0.06l0.3,0v1.759c-0.07,0-.14,0-0.21,0Zm-6.62-.8-0.03-.01v-1.7c0.34,0.089.71,0.17,1.1,0.243v1.718c-0.34-.068-0.65-0.142-0.93-0.215Zm7.73,2.913,0.3,0v1.759c-0.5,0-.99-0.018-1.46-0.041V656.5c0.36,0.016.73,0.028,1.1,0.032h0.06Zm1.4,0c0.37,0,.74-0.017,1.1-0.032v1.756c-0.47.022-.96,0.036-1.46,0.04v-1.758l0.3,0h0.06Zm2.94-.159v1.748c-0.36.035-.72,0.066-1.1,0.092v-1.756C1637.94,656.433,1638.31,656.4,1638.67,656.37Zm0.73-.075c0.38-.045.74-0.094,1.1-0.149v1.728c-0.35.058-.71,0.111-1.1,0.16V656.3Zm1.83-.274c0.39-.073.76-0.155,1.1-0.243v1.7c-0.32.09-.69,0.178-1.1,0.261v-1.717Zm-12.46,0v1.717c-0.41-.083-0.78-0.171-1.1-0.261v-1.7C1628.01,655.866,1628.38,655.948,1628.77,656.021Zm0.73,0.125c0.35,0.056.72,0.105,1.1,0.149v1.74c-0.39-.049-0.75-0.1-1.1-0.161v-1.728Zm1.83,0.224c0.36,0.034.73,0.063,1.1,0.085v1.756c-0.38-.027-0.74-0.058-1.1-0.093V656.37Zm-0.91-2.1c-0.03,0-.07-0.009-0.11-0.012-0.02,0-.05,0-0.08-0.006V652.5c0.36,0.034.73,0.061,1.1,0.085v1.754C1631.03,654.318,1630.72,654.294,1630.42,654.267Zm-0.92-1.842v1.739c-0.39-.049-0.75-0.1-1.1-0.161v-1.729C1628.75,652.33,1629.12,652.38,1629.5,652.425Zm7.21,1.9c-0.08.006-.16,0.011-0.24,0.018v-1.755c0.37-.024.74-0.051,1.1-0.086v1.749c-0.23.021-.46,0.042-0.7,0.062Zm1.59-.159v-1.739c0.38-.045.75-0.095,1.1-0.151V654C1639.05,654.062,1638.69,654.116,1638.3,654.164Zm1.83-2.014c0.39-.074.76-0.154,1.1-0.243v1.7c-0.32.091-.69,0.178-1.1,0.26V652.15Zm-5.01-1.608c-0.28-.007-0.55-0.017-0.81-0.028a0.345,0.345,0,0,1-.04,0v-1.757c0.36,0.016.73,0.027,1.1,0.033h0.06c0.1,0,.2,0,0.3.006v1.756c-0.18,0-.36,0-0.53-0.007Zm-8.55-5.028v-1.7c0.34,0.087.71,0.169,1.1,0.242v1.718c-0.05-.009-0.1-0.018-0.14-0.027q-0.285-.062-0.57-0.13C1626.83,645.583,1626.69,645.549,1626.57,645.514Zm6.66-.947c0.1,0,.2,0,0.3,0v1.757c-0.49,0-.98-0.016-1.46-0.04v-1.756c0.36,0.017.73,0.029,1.1,0.034h0.06Zm1.4,0c0.37-.006.74-0.018,1.1-0.034v1.756c-0.06,0-.12.009-0.18,0.01h-0.02c-0.24.01-.49,0.017-0.75,0.024l-0.12,0-0.39,0v-1.758c0.1,0,.2,0,0.3,0h0.06Zm8.35,0.176-0.01,0-0.13.1a3.563,3.563,0,0,1-.87.432V643.6a5.755,5.755,0,0,0,1.1-.486v1.458A0.253,0.253,0,0,1,1642.98,644.742Zm-4.68,1.327v-1.738c0.38-.044.75-0.093,1.1-0.149v1.726C1639.05,645.967,1638.69,646.021,1638.3,646.069Zm1.83-.3v-1.715c0.39-.073.76-0.155,1.1-0.242v1.695C1640.9,645.6,1640.53,645.689,1640.13,645.772Zm-2.56-1.364v1.745c-0.36.035-.72,0.067-1.1,0.092v-1.752C1636.84,644.469,1637.21,644.44,1637.57,644.408Zm-7.34,1.745v-1.745c0.36,0.032.73,0.061,1.1,0.085v1.751C1630.96,646.219,1630.59,646.189,1630.23,646.153Zm-0.73-1.822v1.738l-0.22-.025-0.14-.019c-0.21-.03-0.42-0.062-0.62-0.094-0.04-.007-0.08-0.012-0.12-0.021v-1.727C1628.75,644.238,1629.12,644.288,1629.5,644.331Zm3.94,6.131c-0.05,0-.1,0-0.15-0.01-0.23-.018-0.46-0.036-0.68-0.058l-0.15-.014-0.03,0V648.63c0.36,0.034.73,0.062,1.1,0.085v1.754Zm-2.42-.262c-0.15-.022-0.28-0.046-0.42-0.069v-1.726c0.35,0.054.72,0.105,1.1,0.149v1.74c-0.22-.029-0.44-0.058-0.65-0.089Zm-1.15-1.921v1.715c-0.41-.084-0.78-0.172-1.1-0.265v-1.692C1629.11,648.125,1629.48,648.207,1629.87,648.279Zm-1.84-.458v1.672a2.315,2.315,0,0,1-1.07-.627l-0.02-.038c0-.01-0.01-0.023-0.01-0.033v-1.458A5.886,5.886,0,0,0,1628.03,647.821Zm8.8,0.967c0.37-.006.74-0.017,1.1-0.033v1.756c-0.48.022-.97,0.034-1.46,0.039v-1.755c0.1,0,.2,0,0.3-0.006h0.06Zm4.74,1.352c-0.17.025-.33,0.053-0.49,0.075-0.1.016-.2,0.028-0.3,0.042l-0.28.035v-1.739c0.38-.043.75-0.094,1.1-0.148v1.728Zm-2.49.3c-0.13.01-.27,0.019-0.41,0.028v-1.752c0.37-.023.74-0.051,1.1-0.085v1.745c-0.22.022-.43,0.043-0.65,0.06A0.262,0.262,0,0,1,1639.08,650.439Zm4.19-.66c-0.18.05-.37,0.094-0.57,0.14-0.09.02-.18,0.041-0.28,0.06l-0.09.017V648.28c0.39-.073.76-0.155,1.1-0.243v1.7C1643.38,649.751,1643.33,649.765,1643.27,649.779Zm1.99-3.424c-0.03.24-.6,0.557-1.6,0.855h0a25.525,25.525,0,0,1-5.9.847l-0.4.015-0.33.01q-0.45.009-.93,0.009t-0.93-.01l-0.33-.01c-0.14,0-.27-0.009-0.4-0.015a25.48,25.48,0,0,1-5.9-.846h0a2.479,2.479,0,0,1-1.6-.849V646.34a0.7,0.7,0,0,1,.08.018c0.15,0.032.29,0.063,0.44,0.094,0.73,0.15,1.54.274,2.4,0.368,0,0,0,0,.01,0h0c0.58,0.064,1.19.115,1.82,0.151l0.01,0a0.016,0.016,0,0,1,.01,0c0.45,0.025.9,0.043,1.36,0.053,0.28,0.006.56,0.011,0.83,0.011,0.19,0,.39,0,0.59-0.006a29.153,29.153,0,0,0,6.85-.815c0.08-.021.16-0.044,0.23-0.066,0.05-.013.1-0.027,0.14-0.04,0.14-.042.26-0.083,0.39-0.126l0.06-.025c0.1-.036.2-0.076,0.3-0.115a0.377,0.377,0,0,1,.08-0.034c0.1-.045.2-0.089,0.29-0.137l0.12-.063c0.04-.026.08-0.048,0.12-0.073s0.05-.028.08-0.044C1644.79,645.836,1645.22,646.209,1645.26,646.355ZM1633.9,640.7c6.05,0,9.1.913,9.16,1.437a2.519,2.519,0,0,1-1.6.848h0a25.7,25.7,0,0,1-5.9.846l-0.4.015-0.33.008c-0.3.006-.61,0.011-0.93,0.011s-0.63,0-.93-0.011l-0.33-.008-0.4-.015a25.7,25.7,0,0,1-5.9-.846h0a2.519,2.519,0,0,1-1.6-.848C1624.8,641.617,1627.85,640.7,1633.9,640.7Zm-9.17,3.869v-1.46a5.755,5.755,0,0,0,1.1.486v1.685A1.569,1.569,0,0,1,1624.73,644.573Zm1.78,4.869c0.01,0,.01.01,0.02,0.016a6.357,6.357,0,0,0,2.83,1.153l0.1,0.019c0.09,0.021.19,0.041,0.28,0.062a29.763,29.763,0,0,0,4.16.5h0c0.5,0.027,1.01.047,1.52,0.056,0.23,0,.46.007,0.68,0.007q0.375,0,.78-0.01c0.48-.009.95-0.028,1.41-0.053h0.02a29.664,29.664,0,0,0,4.23-.52,6.836,6.836,0,0,1-1.08.407h0a26.438,26.438,0,0,1-6.34.862l-0.25.006c-0.09,0-.18,0-0.27.006-0.23,0-.46.006-0.7,0.006-0.32,0-.63,0-0.93-0.012-0.11,0-.22,0-0.33-0.008l-0.4-.014a25.691,25.691,0,0,1-5.9-.847h0c-1.01-.3-1.57-0.618-1.6-0.856C1624.78,650.092,1625.15,649.763,1626.51,649.442Zm-1.78,3.223v-1.458a5.884,5.884,0,0,0,1.1.485v1.678l-0.21-.078v0A1.264,1.264,0,0,1,1624.73,652.665Zm1.1,3.87v-1.457a6.018,6.018,0,0,0,1.1.485v1.684A1.56,1.56,0,0,1,1625.83,656.535Zm17.24,0.712v-1.684a6.018,6.018,0,0,0,1.1-.485v1.457A1.566,1.566,0,0,1,1643.07,657.247Zm1.09-3.147a2.477,2.477,0,0,1-1.6.851h0a25.645,25.645,0,0,1-5.9.846l-0.4.016-0.33.009c-0.3.006-.61,0.01-0.93,0.01s-0.63,0-.93-0.01l-0.33-.01-0.4-.015a25.58,25.58,0,0,1-5.9-.847h0a2.681,2.681,0,0,1-1.6-.827c0.11,0.036.22,0.072,0.34,0.107a0.163,0.163,0,0,0,.04.01l0.3,0.085,0.12,0.031,0.18,0.045a27.721,27.721,0,0,0,4.88.664h0q0.855,0.051,1.74.059c0.15,0,.31,0,0.46,0,0.2,0,.41,0,0.62,0,0.53-.008,1.06-0.027,1.58-0.058h0.01c0.62-.036,1.23-0.087,1.82-0.15h0c0.01,0,.02-0.005.03-0.006,0.65-.072,1.27-0.162,1.84-0.264,0.12-.02.23-0.042,0.35-0.065,0.02,0,.05-0.009.07-0.015a10.206,10.206,0,0,0,2.67-.831c0.03-.019.07-0.037,0.1-0.055l0.12-.072c0.03-.021.07-0.043,0.1-0.066A1.488,1.488,0,0,1,1644.16,654.1Zm0.01-4.6v-1.683a5.95,5.95,0,0,0,1.1-.485v1.457A1.554,1.554,0,0,1,1644.17,649.505Z" transform="translate(-1624 -640)"/>
</svg>
