<svg xmlns="http://www.w3.org/2000/svg" width="18.28" height="23" viewBox="0 0 18.28 23">
  <defs>
    <style>
      .cls-1 {
        fill: #244289;
        fill-rule: evenodd;
      }
    </style>
  </defs>
  <path class="cls-1" d="M1650.03,395.392h0.15a4,4,0,0,0,3.13-1.455c1.71-2.07,1.43-5.613,1.4-5.95-0.11-2.539-1.23-3.751-2.16-4.317a4.7,4.7,0,0,0-2.39-.676h-0.08a4.711,4.711,0,0,0-2.39.653c-0.93.569-2.07,1.782-2.18,4.34-0.04.337-.32,3.88,1.39,5.95A4,4,0,0,0,1650.03,395.392Zm-3.34-7.285a0.267,0.267,0,0,1,.01-0.039c0.14-3.411,2.41-3.781,3.38-3.781h0.05c1.2,0.029,3.24.549,3.38,3.781a0.055,0.055,0,0,0,.01.039c0,0.032.31,3.272-1.1,4.974a2.822,2.822,0,0,1-2.29,1.023h-0.05a2.789,2.789,0,0,1-2.28-1.023C1646.39,391.387,1646.69,388.133,1646.69,388.107Zm12.56,13.162v-0.016c0-.04-0.01-0.076-0.01-0.119-0.03-.945-0.08-3.148-2.01-3.854a0.242,0.242,0,0,1-.05-0.014,12.613,12.613,0,0,1-3.69-1.8,0.579,0.579,0,0,0-.84.158,0.669,0.669,0,0,0,.15.891,13.527,13.527,0,0,0,4.06,1.988c1.04,0.4,1.15,1.583,1.18,2.672a0.479,0.479,0,0,0,.01.118,9.971,9.971,0,0,1-.09,1.471,16.729,16.729,0,0,1-15.69-.007,9.941,9.941,0,0,1-.1-1.471c0-.036.01-0.074,0.01-0.119,0.03-1.085.15-2.271,1.18-2.668a13.388,13.388,0,0,0,4.06-1.988,0.668,0.668,0,0,0,.15-0.89,0.575,0.575,0,0,0-.84-0.159,12.244,12.244,0,0,1-3.69,1.8,0.41,0.41,0,0,0-.04.014c-1.93.711-1.99,2.914-2.02,3.855v0.135a7.739,7.739,0,0,0,.22,2.154,0.638,0.638,0,0,0,.24.3,17.683,17.683,0,0,0,17.36,0,0.618,0.618,0,0,0,.23-0.3A8.537,8.537,0,0,0,1659.25,401.269Z" transform="translate(-1640.97 -383)"/>
</svg>
