<svg xmlns="http://www.w3.org/2000/svg" width="20" height="23.812" viewBox="0 0 20 23.812">
  <defs>
    <style>
      .cls-1 {
        fill: #244289;
        fill-rule: evenodd;
      }
    </style>
  </defs>
  <path class="cls-1" d="M1657.29,474.072a2.263,2.263,0,0,0-1.54-.981,2.3,2.3,0,0,0-1.74.561l-1.71,1.377c-0.11-.088-0.23-0.17-0.34-0.246a4.7,4.7,0,0,1-.45-0.33,17.214,17.214,0,0,1-3.52-4.241,10.486,10.486,0,0,1-1.05-2.288c0.44-.321.85-0.664,1.25-0.994,0.16-.121.31-0.251,0.46-0.374a2.358,2.358,0,0,0,.41-3.443l-1.16-1.531c-0.13-.172-0.26-0.352-0.39-0.529-0.25-.349-0.52-0.706-0.79-1.044a2.283,2.283,0,0,0-1.53-.939,2.309,2.309,0,0,0-1.72.524c-0.01,0-.01,0-0.01.01l-1.84,1.5a3.627,3.627,0,0,0-1.32,2.184,9.144,9.144,0,0,0,.17,3.779,22.03,22.03,0,0,0,2.93,6.827,23.357,23.357,0,0,0,6.82,7.076,11.717,11.717,0,0,0,4.09,1.833c0.1,0.016.2,0.037,0.3,0.049a3.584,3.584,0,0,0,2.93-.883,0.07,0.07,0,0,1,.02-0.025,11.934,11.934,0,0,1,.95-0.793c0.23-.176.47-0.363,0.7-0.562a2.507,2.507,0,0,0,.93-1.634,2.428,2.428,0,0,0-.54-1.8Zm1.1,5.467c-0.01,0-.01,0,0,0-0.22.184-.43,0.353-0.66,0.534a12.837,12.837,0,0,0-1.05.877,2.286,2.286,0,0,1-1.91.566c-0.07-.012-0.14-0.021-0.22-0.034a10.226,10.226,0,0,1-3.61-1.644,21.935,21.935,0,0,1-6.43-6.663,20.854,20.854,0,0,1-2.76-6.419,7.439,7.439,0,0,1-.17-3.19,2.33,2.33,0,0,1,.84-1.4l1.85-1.489a1.073,1.073,0,0,1,.77-0.263,1.026,1.026,0,0,1,.66.439,0.135,0.135,0,0,1,.02.021c0.26,0.318.5,0.647,0.76,1,0.13,0.179.26,0.359,0.4,0.544l1.15,1.524a0.976,0.976,0,0,1-.18,1.544c-0.16.13-.31,0.259-0.47,0.38-0.45.374-.89,0.726-1.35,1.062a0.114,0.114,0,0,0-.03.017,1.045,1.045,0,0,0-.38,1.1,0.076,0.076,0,0,0,.01.047,11.073,11.073,0,0,0,1.24,2.822v0.006a18.389,18.389,0,0,0,3.8,4.574,5.484,5.484,0,0,0,.56.41c0.16,0.109.31,0.215,0.44,0.322a0.34,0.34,0,0,1,.05.042,1.092,1.092,0,0,0,.47.187,0.993,0.993,0,0,0,.77-0.253l1.85-1.5a1.109,1.109,0,0,1,.77-0.284,1,1,0,0,1,.65.456c0.01,0,.01,0,0.01.008l2.33,3.086A1.02,1.02,0,0,1,1658.39,479.539Z" transform="translate(-1640.16 -459.063)"/>
</svg>
