<svg xmlns="http://www.w3.org/2000/svg" width="30" height="28" viewBox="0 0 30 28">
  <defs>
    <style>
      .cls-1 {
        fill: #fd7532;
        fill-rule: evenodd;
      }
    </style>
  </defs>
  <path id="Forma_1" data-name="Forma 1" class="cls-1" d="M1200,51.693h6.5a0.508,0.508,0,0,0,0-1.017H1200A0.508,0.508,0,0,0,1200,51.693Zm13,2.034h-13a0.509,0.509,0,0,0,0,1.018h13A0.509,0.509,0,0,0,1213,53.727Zm0,3.051h-13a0.508,0.508,0,0,0,0,1.017h13A0.508,0.508,0,0,0,1213,56.778Zm9.04-16.742L1204.97,40a3,3,0,0,0-2.97,3.016v2.606l-4.04.008a2.993,2.993,0,0,0-2.96,3.016V59.392a2.992,2.992,0,0,0,2.96,3.015H1201v5.085a0.508,0.508,0,0,0,.32.472,0.462,0.462,0,0,0,.18.036,0.5,0.5,0,0,0,.37-0.166l4.85-5.428,8.31-.035a2.994,2.994,0,0,0,2.97-3.014V59.3l2.63,2.942a0.5,0.5,0,0,0,.37.167,0.524,0.524,0,0,0,.18-0.034,0.513,0.513,0,0,0,.32-0.474V56.815h0.54A2.992,2.992,0,0,0,1225,53.8V43.051A2.993,2.993,0,0,0,1222.04,40.036ZM1217,59.358a1.984,1.984,0,0,1-1.97,2l-8.53.036a0.493,0.493,0,0,0-.37.166L1202,66.175V61.9a0.5,0.5,0,0,0-.5-0.508h-3.54a1.981,1.981,0,0,1-1.96-2V48.644a1.984,1.984,0,0,1,1.97-2l4.53-.011h0l12.53-.025a1.984,1.984,0,0,1,1.97,2V59.358Zm7-5.558a1.982,1.982,0,0,1-1.96,2H1221a0.5,0.5,0,0,0-.5.508v4.278l-2.5-2.8v-9.18a2.993,2.993,0,0,0-2.97-3.014l-12.03.025v-2.6a1.983,1.983,0,0,1,1.96-2l17.07,0.036h0.01a1.982,1.982,0,0,1,1.96,2V53.8h0Z" transform="translate(-1195 -40)"/>
</svg>
